<?xml version="1.0" encoding="UTF-8"?><svg id="a" xmlns="http://www.w3.org/2000/svg" viewBox="0 0 600.73 600.73"><defs>



<style>.f{fill:#f0e2b6;}.g{fill:#f2cfbc;}.h{fill:none;stroke:#231f20;stroke-miterlimit:10;stroke-width:2px;}</style>


</defs>


<path class="g" d="M301.65,190.1c-36.11,0-67.19,35.2-81.05,85.72l162.38,1.01c-13.73-51.06-44.97-86.73-81.32-86.73Z"/><path class="g" d="M382.97,276.83l-162.38-1.01c-4.96,18.07-7.72,38.1-7.72,59.18,0,80.02,39.75,144.9,88.78,144.9s88.78-64.87,88.78-144.9c0-20.69-2.66-40.37-7.45-58.17Z"/><path id="b" class="h" d="M259.65,433.68c30.66,15.1,58.3,13.74,83.67,0"/><g id="c"><polygon class="f" points="291.42 181.01 260.14 180.62 260.98 144.79 291.42 181.01"/><polygon class="f" points="309.45 181.01 342.09 180.62 341.22 144.79 309.45 181.01"/><polygon class="f" points="337.87 157.77 262.31 159.4 337.87 157.77 337.62 157.63 263.08 158.82 220.6 183.32 220.6 275.82 381.58 276.82 382.17 276.48 382.17 183.32 337.87 157.77"/><polygon id="d" class="f" points="220.6 173.24 219.94 173.24 173.35 258.16 219.6 342.46 220.6 173.24"/><polygon id="e" class="f" points="377.8 173.24 378.46 173.24 425.01 258.16 378.79 342.46 377.8 173.24"/></g></svg>